<svg width="16" height="13" viewBox="0 0 16 13" fill="none" xmlns="http://www.w3.org/2000/svg">
<g filter="url(#filter0_d_0_5754)">
<path d="M7.71407 0L9.21407 1.5L6.85693 3.85714L8.14264 5.14285L10.4998 2.78571L11.9998 4.28571V0H7.71407Z" fill="white"/>
<path d="M3.85714 6.85718L1.5 9.21432L0 7.71431V12H4.28571L2.78571 10.5L5.14285 8.14288L3.85714 6.85718Z" fill="white"/>
<path d="M8.14264 6.85718L6.85693 8.14288L9.21407 10.5L7.71407 12H11.9998V7.71431L10.4998 9.21432L8.14264 6.85718Z" fill="white"/>
<path d="M4.28571 0H0V4.28571L1.5 2.78571L3.85714 5.14285L5.14285 3.85714L2.78571 1.5L4.28571 0Z" fill="white"/>
</g>
<defs>
<filter id="filter0_d_0_5754" x="-4" y="0" width="20" height="20" filterUnits="userSpaceOnUse" color-interpolation-filters="sRGB">
<feFlood flood-opacity="0" result="BackgroundImageFix"/>
<feColorMatrix in="SourceAlpha" type="matrix" values="0 0 0 0 0 0 0 0 0 0 0 0 0 0 0 0 0 0 127 0" result="hardAlpha"/>
<feOffset dy="4"/>
<feGaussianBlur stdDeviation="2"/>
<feComposite in2="hardAlpha" operator="out"/>
<feColorMatrix type="matrix" values="0 0 0 0 0 0 0 0 0 0 0 0 0 0 0 0 0 0 0.25 0"/>
<feBlend mode="normal" in2="BackgroundImageFix" result="effect1_dropShadow_0_5754"/>
<feBlend mode="normal" in="SourceGraphic" in2="effect1_dropShadow_0_5754" result="shape"/>
</filter>
</defs>
</svg>
